<?xml version="1.0" encoding="iso-8859-1"?>
<!-- Generator: Adobe Illustrator 19.0.0, SVG Export Plug-In . SVG Version: 6.00 Build 0)  -->
<svg version="1.1" id="Layer_1" xmlns="http://www.w3.org/2000/svg" xmlns:xlink="http://www.w3.org/1999/xlink" x="0px" y="0px"
	 viewBox="0 0 508.609 508.609" style="enable-background:new 0 0 508.609 508.609;" xml:space="preserve">
<path style="fill:#8A6753;" d="M417.566,333.648l-50.522-11.868l-18.649-4.408c-23.396-5.425-39.672-26.109-39.672-50.183v-60.016
	H200.22v60.016c0,23.735-16.275,44.758-39.672,50.183L141.9,321.78l-50.522,11.868c-26.787,6.442-45.097,28.143-45.097,53.574
	v121.388h140.715H328.39h133.934V387.221C462.663,362.13,444.014,340.09,417.566,333.648z"/>
<path style="fill:#EEB490;" d="M385.354,298.723L385.354,298.723c-11.189,0-20.344,9.155-20.344,20.344v-208.53
	C365.01,49.505,315.505,0,254.472,0l0,0c-61.033,0-110.538,49.505-110.538,110.538v208.191c0-11.189-9.155-20.344-20.344-20.344
	s-20.344,9.155-20.344,20.344v19.666l0,0c0.339,83.073,67.475,150.209,150.887,150.209s150.548-67.136,150.887-150.209h0.678
	v-19.666C405.698,307.539,396.543,298.723,385.354,298.723z"/>
<path style="fill:#FACCB4;" d="M254.472,115.285c-26.448,0-50.861,6.442-71.205,17.632v59.677c7.46,2.713,15.597,4.408,24.074,4.408
	c18.988,0,35.603-7.799,47.131-19.666c11.189,11.868,28.143,19.666,47.131,19.666c8.477,0,16.615-1.695,24.074-4.408v-59.677
	C305.333,121.727,280.92,115.285,254.472,115.285z"/>
<g>
</g>
<g>
</g>
<g>
</g>
<g>
</g>
<g>
</g>
<g>
</g>
<g>
</g>
<g>
</g>
<g>
</g>
<g>
</g>
<g>
</g>
<g>
</g>
<g>
</g>
<g>
</g>
<g>
</g>
</svg>
